<mxfile host="65bd71144e">
    <diagram name="优化过程关键发现" id="optimization-findings">
        <mxGraphModel dx="489" dy="532" grid="1" gridSize="10" guides="1" tooltips="1" connect="1" arrows="1" fold="1" page="1" pageScale="1" pageWidth="1169" pageHeight="827" math="0" shadow="0">
            <root>
                <mxCell id="0"/>
                <mxCell id="1" parent="0"/>
                <mxCell id="divider" value="" style="endArrow=none;html=1;strokeWidth=3;strokeColor=#95a5a6;dashed=1;" parent="1" edge="1">
                    <mxGeometry width="50" height="50" relative="1" as="geometry">
                        <mxPoint x="584" y="120" as="sourcePoint"/>
                        <mxPoint x="584" y="700" as="targetPoint"/>
                    </mxGeometry>
                </mxCell>
                <mxCell id="traps-title" value="⚠️ 遇到的典型陷阱" style="text;html=1;strokeColor=none;fillColor=none;align=center;verticalAlign=middle;whiteSpace=wrap;rounded=0;fontSize=20;fontStyle=1;fontColor=#e74c3c;" parent="1" vertex="1">
                    <mxGeometry x="150" y="100" width="280" height="40" as="geometry"/>
                </mxCell>
                <mxCell id="trap1" value="❌ 过度拟合" style="rounded=1;whiteSpace=wrap;html=1;fontSize=16;fontStyle=1;fillColor=#ffebee;strokeColor=#f44336;strokeWidth=2;fontColor=#2c3e50;" parent="1" vertex="1">
                    <mxGeometry x="80" y="180" width="200" height="50" as="geometry"/>
                </mxCell>
                <mxCell id="trap1-detail" value="• 算法根据文件名特征判断&#xa;• 缺乏泛化能力&#xa;• 无法适应新场景" style="rounded=1;whiteSpace=wrap;html=1;fontSize=12;fillColor=#ffffff;strokeColor=#f44336;strokeWidth=1;align=left;verticalAlign=top;spacingLeft=15;spacingTop=10;fontColor=#2c3e50;" parent="1" vertex="1">
                    <mxGeometry x="300" y="160" width="200" height="90" as="geometry"/>
                </mxCell>
                <mxCell id="trap2" value="❌ 关键词堆砌" style="rounded=1;whiteSpace=wrap;html=1;fontSize=16;fontStyle=1;fillColor=#ffebee;strokeColor=#f44336;strokeWidth=2;fontColor=#2c3e50;" parent="1" vertex="1">
                    <mxGeometry x="80" y="300" width="200" height="50" as="geometry"/>
                </mxCell>
                <mxCell id="trap2-detail" value="• 大量硬编码关键词匹配&#xa;• 算法脆弱且不通用&#xa;• 维护成本高" style="rounded=1;whiteSpace=wrap;html=1;fontSize=12;fillColor=#ffffff;strokeColor=#f44336;strokeWidth=1;align=left;verticalAlign=top;spacingLeft=15;spacingTop=10;fontColor=#2c3e50;" parent="1" vertex="1">
                    <mxGeometry x="300" y="280" width="200" height="90" as="geometry"/>
                </mxCell>
                <mxCell id="trap3" value="❌ 忽视边界情况" style="rounded=1;whiteSpace=wrap;html=1;fontSize=16;fontStyle=1;fillColor=#ffebee;strokeColor=#f44336;strokeWidth=2;fontColor=#2c3e50;" parent="1" vertex="1">
                    <mxGeometry x="80" y="420" width="200" height="50" as="geometry"/>
                </mxCell>
                <mxCell id="trap3-detail" value="• 只针对理想格式优化&#xa;• 忽视现实中的格式变异&#xa;• 鲁棒性不足" style="rounded=1;whiteSpace=wrap;html=1;fontSize=12;fillColor=#ffffff;strokeColor=#f44336;strokeWidth=1;align=left;verticalAlign=top;spacingLeft=15;spacingTop=10;fontColor=#2c3e50;" parent="1" vertex="1">
                    <mxGeometry x="300" y="400" width="200" height="90" as="geometry"/>
                </mxCell>
                <mxCell id="gains-title" value="🎯 获得的意外收获" style="text;html=1;strokeColor=none;fillColor=none;align=center;verticalAlign=middle;whiteSpace=wrap;rounded=0;fontSize=20;fontStyle=1;fontColor=#27ae60;" parent="1" vertex="1">
                    <mxGeometry x="720" y="100" width="280" height="40" as="geometry"/>
                </mxCell>
                <mxCell id="gain1" value="✅ Excel 处理组件库" style="rounded=1;whiteSpace=wrap;html=1;fontSize=16;fontStyle=1;fillColor=#e8f5e8;strokeColor=#4CAF50;strokeWidth=2;fontColor=#2c3e50;" parent="1" vertex="1">
                    <mxGeometry x="650" y="180" width="200" height="50" as="geometry"/>
                </mxCell>
                <mxCell id="gain1-detail" value="高质量的 Excel 文件处理代码片段：&#xa;&#xa;• 智能提取 sheet 名称和结构&#xa;• 理解和处理合并单元格逻辑&#xa;• 解析单元格颜色和样式信息" style="rounded=1;whiteSpace=wrap;html=1;fontSize=12;fillColor=#ffffff;strokeColor=#4CAF50;strokeWidth=1;align=left;verticalAlign=top;spacingLeft=15;spacingTop=10;fontColor=#2c3e50;" parent="1" vertex="1">
                    <mxGeometry x="870" y="160" width="220" height="120" as="geometry"/>
                </mxCell>
                <mxCell id="gain2" value="✅ 领域知识积累" style="rounded=1;whiteSpace=wrap;html=1;fontSize=16;fontStyle=1;fillColor=#e8f5e8;strokeColor=#4CAF50;strokeWidth=2;fontColor=#2c3e50;" parent="1" vertex="1">
                    <mxGeometry x="650" y="320" width="200" height="50" as="geometry"/>
                </mxCell>
                <mxCell id="gain2-detail" value="• 将 Excel 文件处理的&#xa;  经验知识结构化&#xa;• 形成可复用的知识库&#xa;• 提升后续类似任务效率" style="rounded=1;whiteSpace=wrap;html=1;fontSize=12;fillColor=#ffffff;strokeColor=#4CAF50;strokeWidth=1;align=left;verticalAlign=top;spacingLeft=15;spacingTop=10;fontColor=#2c3e50;" parent="1" vertex="1">
                    <mxGeometry x="870" y="300" width="220" height="100" as="geometry"/>
                </mxCell>
                <mxCell id="trap1-line" value="" style="endArrow=classic;html=1;rounded=0;exitX=1;exitY=0.5;exitDx=0;exitDy=0;entryX=0;entryY=0.5;entryDx=0;entryDy=0;strokeColor=#f44336;strokeWidth=2;" parent="1" source="trap1" target="trap1-detail" edge="1">
                    <mxGeometry width="50" height="50" relative="1" as="geometry">
                        <mxPoint x="400" y="300" as="sourcePoint"/>
                        <mxPoint x="450" y="250" as="targetPoint"/>
                    </mxGeometry>
                </mxCell>
                <mxCell id="trap2-line" value="" style="endArrow=classic;html=1;rounded=0;exitX=1;exitY=0.5;exitDx=0;exitDy=0;entryX=0;entryY=0.5;entryDx=0;entryDy=0;strokeColor=#f44336;strokeWidth=2;" parent="1" source="trap2" target="trap2-detail" edge="1">
                    <mxGeometry width="50" height="50" relative="1" as="geometry">
                        <mxPoint x="400" y="400" as="sourcePoint"/>
                        <mxPoint x="450" y="350" as="targetPoint"/>
                    </mxGeometry>
                </mxCell>
                <mxCell id="trap3-line" value="" style="endArrow=classic;html=1;rounded=0;exitX=1;exitY=0.5;exitDx=0;exitDy=0;entryX=0;entryY=0.5;entryDx=0;entryDy=0;strokeColor=#f44336;strokeWidth=2;" parent="1" source="trap3" target="trap3-detail" edge="1">
                    <mxGeometry width="50" height="50" relative="1" as="geometry">
                        <mxPoint x="400" y="500" as="sourcePoint"/>
                        <mxPoint x="450" y="450" as="targetPoint"/>
                    </mxGeometry>
                </mxCell>
                <mxCell id="gain1-line" value="" style="endArrow=classic;html=1;rounded=0;exitX=1;exitY=0.5;exitDx=0;exitDy=0;entryX=0;entryY=0.5;entryDx=0;entryDy=0;strokeColor=#4CAF50;strokeWidth=2;" parent="1" source="gain1" target="gain1-detail" edge="1">
                    <mxGeometry width="50" height="50" relative="1" as="geometry">
                        <mxPoint x="900" y="300" as="sourcePoint"/>
                        <mxPoint x="950" y="250" as="targetPoint"/>
                    </mxGeometry>
                </mxCell>
                <mxCell id="gain2-line" value="" style="endArrow=classic;html=1;rounded=0;exitX=1;exitY=0.5;exitDx=0;exitDy=0;entryX=0;entryY=0.5;entryDx=0;entryDy=0;strokeColor=#4CAF50;strokeWidth=2;" parent="1" source="gain2" target="gain2-detail" edge="1">
                    <mxGeometry width="50" height="50" relative="1" as="geometry">
                        <mxPoint x="900" y="400" as="sourcePoint"/>
                        <mxPoint x="950" y="350" as="targetPoint"/>
                    </mxGeometry>
                </mxCell>
                <mxCell id="summary" value="💡 关键启示：避免算法陷阱的同时，要善于发现和积累过程中的附加价值" style="rounded=1;whiteSpace=wrap;html=1;fontSize=16;fillColor=#f8f9fa;strokeColor=#6c757d;strokeWidth=2;fontColor=#2c3e50;align=center;fontStyle=2;" parent="1" vertex="1">
                    <mxGeometry x="250" y="540" width="660" height="60" as="geometry"/>
                </mxCell>
                <mxCell id="learning-arrow" value="学习改进路径" style="endArrow=classic;html=1;rounded=0;strokeColor=#9C27B0;strokeWidth=3;curved=1;exitX=1;exitY=0.5;exitDx=0;exitDy=0;entryX=0;entryY=0.5;entryDx=0;entryDy=0;" parent="1" edge="1">
                    <mxGeometry width="50" height="50" relative="1" as="geometry">
                        <mxPoint x="520" y="350" as="sourcePoint"/>
                        <mxPoint x="630" y="280" as="targetPoint"/>
                        <Array as="points">
                            <mxPoint x="575" y="280"/>
                        </Array>
                    </mxGeometry>
                </mxCell>
            </root>
        </mxGraphModel>
    </diagram>
</mxfile>